<?xml version="1.0" standalone="no"?>
<!DOCTYPE svg PUBLIC "-//W3C//DTD SVG 20010904//EN"
 "http://www.w3.org/TR/2001/REC-SVG-20010904/DTD/svg10.dtd">
<svg version="1.0" xmlns="http://www.w3.org/2000/svg"
 width="100.000000pt" height="100.000000pt" viewBox="0 0 100.000000 100.000000"
 preserveAspectRatio="xMidYMid meet">
<metadata>
Created by potrace 1.16, written by Peter Selinger 2001-2019
</metadata>
<g transform="translate(0.000000,100.000000) scale(0.100000,-0.100000)"
fill="#000000" stroke="none">
<path d="M365 984 c-81 -42 -105 -89 -104 -206 1 -135 46 -242 123 -289 85
-52 180 3 236 137 27 66 30 82 28 168 -3 93 -4 95 -38 131 -24 25 -54 42 -98
55 -77 24 -107 25 -147 4z m167 -56 c65 -28 79 -56 74 -151 -7 -126 -52 -221
-121 -254 -29 -14 -38 -14 -65 -3 -39 16 -87 80 -96 126 -3 19 -9 36 -13 39
-4 2 -7 44 -6 93 2 100 13 129 68 163 38 24 83 20 159 -13z"/>
<path d="M306 505 c-10 -8 -50 -26 -87 -40 -80 -31 -112 -64 -134 -138 -20
-68 -36 -203 -29 -233 13 -50 203 -94 410 -94 74 0 134 2 134 5 0 2 -14 24
-31 49 -26 36 -32 56 -36 113 -4 60 -1 74 24 123 32 64 85 105 159 124 l49 14
-60 26 c-33 14 -78 35 -100 46 l-40 21 -15 -23 c-27 -43 -78 -88 -98 -88 -26
0 -78 44 -98 81 -16 33 -21 34 -48 14z"/>
<path d="M649 361 c-109 -68 -129 -203 -46 -297 44 -51 76 -64 154 -64 77 0
115 17 156 72 44 57 53 152 20 213 -18 31 -75 83 -106 94 -55 21 -129 14 -178
-18z"/>
</g>
</svg>
