<?xml version="1.0" standalone="no"?>
<!DOCTYPE svg PUBLIC "-//W3C//DTD SVG 20010904//EN"
 "http://www.w3.org/TR/2001/REC-SVG-20010904/DTD/svg10.dtd">
<svg version="1.0" xmlns="http://www.w3.org/2000/svg"
 width="100.000000pt" height="100.000000pt" viewBox="0 0 100.000000 100.000000"
 preserveAspectRatio="xMidYMid meet">

<g transform="translate(0.000000,100.000000) scale(0.100000,-0.100000)"
fill="#000000" stroke="none">
<path d="M388 959 c-2 -15 -20 -26 -68 -43 -67 -23 -164 -80 -189 -109 -9 -12
-29 -17 -62 -17 l-49 0 0 -110 0 -111 108 3 107 3 3 108 3 107 -37 0 c-36 0
-36 1 -20 19 22 25 137 81 179 88 l32 5 0 -69 0 -68 108 -3 107 -3 0 71 c0 66
1 70 23 70 32 0 177 -72 155 -77 -16 -4 -18 -18 -18 -109 l0 -104 110 0 110 0
0 105 0 105 -64 0 c-47 0 -70 5 -87 19 -35 27 -138 77 -187 90 -31 9 -42 17
-42 31 0 19 -7 20 -109 20 -103 0 -110 -1 -113 -21z m141 -49 c-23 -28 -38
-39 -50 -35 -26 8 -34 -13 -13 -36 10 -11 21 -18 24 -17 4 2 26 25 49 51 l41
48 0 -65 0 -66 -75 0 -75 0 0 80 0 80 65 0 66 0 -32 -40z m382 -148 c-27 -39
-48 -55 -61 -47 -24 15 -31 -8 -9 -31 l22 -24 48 53 48 52 1 -62 0 -63 -80 0
-80 0 0 75 0 75 66 0 65 0 -20 -28z m-740 -19 c-16 -30 -59 -65 -70 -58 -25
15 -32 -8 -10 -31 l23 -25 48 53 47 53 1 -62 0 -63 -80 0 -80 0 0 75 0 75 65
0 c60 0 65 -2 56 -17z"/>
<path d="M430 685 c0 -8 7 -15 15 -15 8 0 15 7 15 15 0 8 -7 15 -15 15 -8 0
-15 -7 -15 -15z"/>
<path d="M490 685 c0 -8 7 -15 15 -15 8 0 15 7 15 15 0 8 -7 15 -15 15 -8 0
-15 -7 -15 -15z"/>
<path d="M550 685 c0 -8 7 -15 15 -15 8 0 15 7 15 15 0 8 -7 15 -15 15 -8 0
-15 -7 -15 -15z"/>
<path d="M450 599 c-14 -6 -34 -18 -45 -29 -76 -71 -67 -67 -105 -48 -83 42
-190 7 -229 -75 -26 -54 -29 -188 -6 -244 15 -35 14 -38 -11 -74 -14 -21 -28
-56 -31 -78 l-6 -41 487 0 486 0 0 23 c-1 54 -51 125 -116 163 -17 10 -17 11
2 36 10 15 29 31 42 37 35 17 48 55 29 84 -15 23 -14 25 10 49 15 15 27 41 30
66 5 36 2 45 -24 71 -28 28 -33 29 -124 30 -82 0 -98 -3 -130 -23 l-36 -24
-26 34 c-39 48 -132 69 -197 43z m165 -54 c17 -16 25 -35 25 -60 0 -41 -20
-47 -42 -12 -14 20 -24 22 -93 22 -69 0 -79 -2 -96 -24 -19 -23 -49 -23 -49
-1 0 6 21 31 46 56 46 43 47 44 116 44 60 0 72 -3 93 -25z m215 -30 c0 -25 31
-65 50 -65 15 0 12 21 -5 40 -38 42 26 69 66 29 46 -46 -6 -129 -81 -129 -30
0 -43 6 -64 31 -14 17 -26 37 -26 45 0 8 -7 14 -15 14 -8 0 -15 -6 -15 -12 0
-7 -16 -26 -35 -41 l-35 -28 1 28 c1 42 11 60 48 88 23 16 48 25 73 25 34 0
38 -3 38 -25z m-534 -25 c37 -24 48 -46 38 -84 -4 -17 0 -35 10 -51 19 -29 21
-120 3 -151 -9 -17 -17 -20 -34 -13 -28 10 -29 23 -3 56 21 28 26 82 10 113
-5 10 -33 26 -60 35 -28 9 -56 26 -63 36 -16 25 -29 24 -58 -7 -34 -36 -35
-138 -2 -182 23 -31 21 -36 -15 -56 -38 -22 -58 176 -24 244 37 74 129 102
198 60z m282 -101 c3 -80 -10 -99 -69 -99 -71 0 -79 10 -79 96 l0 75 73 -3 72
-3 3 -66z m-186 1 c3 -19 0 -30 -8 -30 -17 0 -26 30 -13 46 15 19 16 18 21
-16z m246 -3 c2 -19 -1 -27 -12 -27 -11 0 -16 10 -16 31 0 38 24 35 28 -4z
m136 8 c14 -14 39 -28 56 -31 29 -6 30 -9 30 -58 0 -29 -5 -57 -12 -64 -16
-16 -110 -16 -126 0 -7 7 -12 41 -12 85 0 58 3 74 18 82 9 6 18 11 19 11 1 0
13 -11 27 -25z m-584 1 c6 -8 28 -20 48 -27 51 -16 62 -27 62 -61 0 -36 -40
-78 -74 -78 -60 0 -103 85 -77 153 12 30 23 34 41 13z m490 -70 c0 -32 -16
-42 -29 -18 -7 13 -7 22 1 30 19 19 28 14 28 -12z m243 12 c6 -18 -12 -50 -24
-43 -15 10 -11 55 5 55 8 0 16 -6 19 -12z m-493 -69 c0 -5 -9 -13 -20 -19 -18
-10 -20 -8 -20 26 0 36 0 37 20 19 11 -10 20 -22 20 -26z m207 15 c81 -74 89
-88 55 -96 -11 -3 -36 11 -66 37 -44 39 -47 44 -34 64 7 11 14 21 15 21 1 0
15 -12 30 -26z m-88 -28 c-22 -19 -47 -23 -69 -10 -24 13 -23 13 24 14 27 0
47 -2 45 -4z m-90 -35 c11 -7 10 -11 -7 -20 -15 -8 -21 -7 -25 3 -9 24 7 32
32 17z m124 3 c3 -3 3 -12 0 -20 -4 -10 -10 -11 -25 -3 -17 9 -18 13 -7 20 17
10 24 11 32 3z m-315 -56 c3 -27 2 -28 -42 -28 -45 0 -46 1 -46 31 0 29 1 30
43 27 38 -3 42 -6 45 -30z m148 -17 c2 -1 21 7 43 20 41 23 41 23 79 4 20 -11
40 -21 44 -23 4 -2 13 9 21 24 l14 28 26 -40 c14 -21 27 -57 29 -79 l3 -40
-172 -3 -173 -2 0 25 c0 31 25 93 48 118 16 18 17 18 26 -5 6 -13 11 -25 12
-27z m414 39 c0 -13 -44 -23 -69 -15 -36 11 -23 25 24 25 25 0 45 -4 45 -10z
m-680 -76 c0 -11 7 -29 15 -40 23 -31 19 -34 -50 -34 -36 0 -65 2 -65 5 0 21
32 75 56 94 30 23 44 16 44 -25z m166 29 c-4 -9 -10 -36 -13 -60 -4 -29 -11
-43 -20 -43 -11 0 -13 5 -8 18 5 9 13 36 19 60 6 23 15 42 19 42 5 0 6 -8 3
-17z m449 1 c14 -4 44 -1 64 6 46 15 73 4 101 -43 39 -64 34 -67 -99 -67
l-119 0 -7 46 c-3 26 -9 53 -12 62 -5 12 -1 14 19 9 14 -4 38 -9 53 -13z
m-505 -43 c0 -5 -9 -19 -19 -32 -20 -24 -20 -24 -35 -4 -25 32 -19 45 19 45
19 0 35 -4 35 -9z"/>
</g>
</svg>
