<?xml version="1.0" standalone="no"?>
<!DOCTYPE svg PUBLIC "-//W3C//DTD SVG 20010904//EN"
 "http://www.w3.org/TR/2001/REC-SVG-20010904/DTD/svg10.dtd">
<svg version="1.0" xmlns="http://www.w3.org/2000/svg"
 width="100.000000pt" height="100.000000pt" viewBox="0 0 100.000000 100.000000"
 preserveAspectRatio="xMidYMid meet">

<g transform="translate(0.000000,100.000000) scale(0.100000,-0.100000)"
fill="#000000" stroke="none">
<path d="M127 802 c-20 -22 -22 -43 -5 -60 9 -9 118 -12 430 -12 l418 0 12 25
c9 21 8 28 -7 45 -18 19 -31 20 -425 20 -381 0 -408 -1 -423 -18z"/>
<path d="M7 563 c-11 -11 -8 -58 5 -71 9 -9 129 -12 479 -12 412 0 469 2 483
16 19 18 20 28 6 55 -10 18 -26 19 -489 19 -263 0 -481 -3 -484 -7z"/>
<path d="M386 317 c-27 -20 -18 -69 14 -78 38 -11 525 -10 553 0 37 14 45 50
17 73 -20 16 -47 18 -294 18 -208 0 -276 -3 -290 -13z"/>
</g>
</svg>
