<?xml version="1.0" standalone="no"?>
<!DOCTYPE svg PUBLIC "-//W3C//DTD SVG 20010904//EN"
 "http://www.w3.org/TR/2001/REC-SVG-20010904/DTD/svg10.dtd">
<svg version="1.0" xmlns="http://www.w3.org/2000/svg"
 width="100.000000pt" height="100.000000pt" viewBox="0 0 100.000000 100.000000"
 preserveAspectRatio="xMidYMid meet">

<g transform="translate(0.000000,100.000000) scale(0.100000,-0.100000)"
fill="#000000" stroke="none">
<path d="M477 930 l6 -30 -91 0 c-122 0 -122 -1 -122 -177 0 -112 2 -133 15
-133 13 0 15 20 15 124 0 68 3 131 6 140 8 22 124 23 124 2 0 -11 -14 -16 -47
-18 l-48 -3 -3 -122 c-2 -105 0 -123 13 -123 13 0 15 18 15 110 l0 110 190 0
190 0 0 -125 c0 -105 2 -125 15 -125 13 0 15 20 13 138 l-3 137 -42 3 c-30 2
-43 8 -43 18 0 12 12 14 58 12 l57 -3 3 -147 c2 -123 5 -148 17 -148 13 0 15
24 15 148 0 185 2 182 -124 182 l-88 0 7 30 7 30 -81 0 -80 0 6 -30z m111 -27
c-3 -24 1 -28 25 -31 15 -2 27 -9 27 -18 0 -11 -19 -14 -90 -14 -71 0 -90 3
-90 14 0 9 12 16 28 18 23 2 27 7 25 31 -2 25 1 27 38 27 37 0 40 -2 37 -27z"/>
<path d="M394 756 c-3 -14 -3 -38 0 -52 6 -23 11 -25 49 -22 l42 3 0 45 0 45
-42 3 c-38 3 -43 1 -49 -22z m61 -26 c0 -7 -6 -15 -12 -17 -8 -3 -13 4 -13 17
0 13 5 20 13 18 6 -3 12 -11 12 -18z"/>
<path d="M520 765 c0 -8 7 -15 15 -15 8 0 15 7 15 15 0 8 -7 15 -15 15 -8 0
-15 -7 -15 -15z"/>
<path d="M580 765 c0 -12 14 -15 65 -15 51 0 65 3 65 15 0 12 -14 15 -65 15
-51 0 -65 -3 -65 -15z"/>
<path d="M520 695 c0 -13 15 -15 92 -13 62 2 93 7 96 16 3 9 -20 12 -92 12
-80 0 -96 -3 -96 -15z"/>
<path d="M394 616 c-3 -14 -3 -38 0 -52 6 -23 11 -25 49 -22 l42 3 0 45 0 45
-42 3 c-38 3 -43 1 -49 -22z m61 -26 c0 -7 -6 -15 -12 -17 -8 -3 -13 4 -13 17
0 13 5 20 13 18 6 -3 12 -11 12 -18z"/>
<path d="M520 625 c0 -8 7 -15 15 -15 8 0 15 7 15 15 0 8 -7 15 -15 15 -8 0
-15 -7 -15 -15z"/>
<path d="M580 625 c0 -12 13 -15 66 -15 48 0 65 3 62 13 -3 7 -28 13 -66 15
-51 2 -62 0 -62 -13z"/>
<path d="M520 555 c0 -12 17 -15 95 -15 78 0 95 3 95 15 0 12 -17 15 -95 15
-78 0 -95 -3 -95 -15z"/>
<path d="M57 553 c-4 -3 -7 -123 -7 -265 l0 -258 295 0 295 0 0 140 0 140
-140 0 -140 0 0 125 0 125 -148 0 c-82 0 -152 -3 -155 -7z m83 -60 c0 -57 9
-65 71 -61 l54 3 3 48 c3 45 5 47 33 47 l29 0 0 -110 0 -110 -125 0 -125 0 0
110 0 110 30 0 c28 0 30 -3 30 -37z m98 5 c-2 -28 -8 -34 -30 -36 -26 -3 -28
-1 -28 32 0 33 2 36 31 36 28 0 30 -2 27 -32z m-98 -255 c0 -57 9 -65 71 -61
l54 3 3 48 c3 45 5 47 33 47 l29 0 0 -110 0 -110 -125 0 -125 0 0 110 0 110
30 0 c28 0 30 -3 30 -37z m98 5 c-2 -28 -8 -34 -30 -36 -26 -3 -28 -1 -28 32
0 33 2 36 31 36 28 0 30 -2 27 -32z m192 -18 l5 -45 55 0 55 0 3 48 c3 45 5
47 33 47 l29 0 0 -110 0 -110 -125 0 -125 0 0 103 c0 57 3 107 7 111 4 4 19 6
33 4 22 -3 26 -9 30 -48z m88 18 c-2 -28 -8 -34 -30 -36 -26 -3 -28 -1 -28 32
0 33 2 36 31 36 28 0 30 -2 27 -32z"/>
<path d="M270 355 c0 -8 7 -15 15 -15 8 0 15 7 15 15 0 8 -7 15 -15 15 -8 0
-15 -7 -15 -15z"/>
<path d="M270 105 c0 -8 7 -15 15 -15 8 0 15 7 15 15 0 8 -7 15 -15 15 -8 0
-15 -7 -15 -15z"/>
<path d="M550 105 c0 -8 7 -15 15 -15 8 0 15 7 15 15 0 8 -7 15 -15 15 -8 0
-15 -7 -15 -15z"/>
<path d="M676 495 c-174 -53 -214 -68 -239 -94 -35 -34 -33 -39 18 -51 31 -7
65 0 201 41 179 54 184 55 184 36 0 -7 -25 -21 -55 -31 -38 -12 -53 -21 -49
-31 3 -7 11 -12 17 -10 120 37 117 35 117 70 0 27 4 34 27 40 38 9 53 23 53
49 0 28 -18 46 -44 45 -12 0 -115 -29 -230 -64z m244 21 c0 -13 -20 -26 -41
-26 -14 0 -11 28 4 33 23 10 37 7 37 -7z m-82 -22 c-2 -11 -38 -27 -113 -50
-124 -38 -135 -39 -135 -21 0 9 44 27 118 49 140 43 134 42 130 22z m-278 -89
c0 -15 -55 -30 -87 -22 -14 3 -11 7 17 20 44 20 70 21 70 2z"/>
<path d="M798 258 l-3 -83 -57 -3 c-43 -2 -58 -7 -58 -17 0 -24 112 -21 133 3
23 25 25 182 2 182 -11 0 -15 -18 -17 -82z"/>
<path d="M740 275 c0 -43 -1 -45 -30 -45 -20 0 -30 -5 -30 -15 0 -11 12 -15
45 -15 l45 0 0 60 c0 47 -3 60 -15 60 -11 0 -15 -12 -15 -45z"/>
</g>
</svg>
