<?xml version="1.0" standalone="no"?>
<!DOCTYPE svg PUBLIC "-//W3C//DTD SVG 20010904//EN"
 "http://www.w3.org/TR/2001/REC-SVG-20010904/DTD/svg10.dtd">
<svg version="1.0" xmlns="http://www.w3.org/2000/svg"
 width="100.000000pt" height="100.000000pt" viewBox="0 0 100.000000 100.000000"
 preserveAspectRatio="xMidYMid meet">
<metadata>
Created by potrace 1.10, written by Peter Selinger 2001-2011
</metadata>
<g transform="translate(0.000000,100.000000) scale(0.100000,-0.100000)"
fill="#000000" stroke="none">
<path d="M359 953 c-16 -7 -30 -13 -31 -15 -1 -2 -4 -102 -8 -223 -4 -186 -7
-220 -20 -220 -13 0 -14 16 -12 101 3 68 0 104 -7 109 -13 7 -230 9 -237 2 -3
-3 -5 -74 -5 -158 0 -135 2 -154 16 -157 14 -3 16 3 13 35 -3 35 -1 38 22 38
20 0 24 -5 25 -30 0 -29 2 -30 45 -30 44 0 45 1 48 33 3 27 7 33 24 30 19 -3
21 -10 22 -78 1 -59 4 -75 16 -75 12 0 15 15 15 75 1 69 3 75 22 78 18 3 22
-3 25 -30 3 -32 4 -33 48 -33 43 0 45 1 45 30 1 23 6 31 23 33 21 3 22 1 22
-92 l0 -96 -203 0 -203 0 4 34 c3 30 -11 56 -24 43 -3 -3 -5 -76 -5 -163 l0
-159 160 -3 c139 -2 161 0 161 13 0 11 -11 15 -37 15 l-38 0 0 95 c0 91 1 95
22 95 17 0 22 -7 25 -32 3 -32 5 -33 48 -33 43 0 45 1 45 30 1 23 6 31 23 33
21 3 22 1 22 -92 l0 -95 -35 -3 c-20 -2 -36 -7 -38 -13 -1 -6 93 -11 262 -13
260 -2 265 -2 288 20 23 21 23 24 23 236 0 166 -3 213 -12 210 -10 -4 -14 -56
-16 -208 -1 -130 -6 -208 -13 -217 -8 -9 -40 -13 -110 -13 -81 0 -99 3 -99 15
0 12 17 15 95 15 l95 0 -2 342 c-2 220 -7 343 -13 343 -6 0 -11 -118 -13 -327
l-2 -328 -80 0 -80 0 0 65 0 65 55 0 c42 0 55 3 55 15 0 12 -19 15 -110 15
l-110 0 0 28 c0 16 9 37 20 47 14 13 17 22 10 29 -7 7 -15 5 -26 -6 -14 -14
-19 -14 -45 -1 -16 8 -38 12 -49 8 -16 -5 -20 -2 -20 18 0 21 4 23 31 19 41
-6 79 29 79 74 0 23 6 37 21 44 16 9 18 14 8 26 -10 13 -14 12 -31 -3 -14 -13
-21 -14 -30 -5 -14 14 -74 16 -83 2 -3 -5 -12 -7 -20 -4 -9 4 -15 -4 -17 -26
-3 -32 -4 -33 -56 -34 l-52 -1 0 206 c0 146 3 208 12 217 17 17 549 17 566 0
8 -8 12 -67 12 -200 0 -160 2 -188 15 -188 13 0 15 28 15 195 0 182 -1 196
-20 215 -11 11 -26 20 -32 20 -381 5 -534 3 -559 -7z m-244 -301 c0 -25 3 -27
45 -27 43 0 45 1 48 31 3 26 7 30 25 27 21 -4 22 -9 20 -95 l-1 -90 -92 0 -92
0 -1 91 c-2 83 0 91 18 94 26 4 29 1 30 -31z m65 12 c0 -8 -9 -14 -20 -14 -19
0 -27 19 -14 33 10 9 34 -4 34 -19z m370 -139 c-10 -12 -16 -13 -26 -4 -20 16
-18 19 12 19 22 0 25 -2 14 -15z m-40 -30 c16 -19 29 -19 52 2 17 15 18 15 18
-3 0 -51 -60 -60 -84 -14 -15 32 -7 41 14 15z m-330 -45 c0 -13 -7 -20 -20
-20 -13 0 -20 7 -20 20 0 13 7 20 20 20 13 0 20 -7 20 -20z m218 -3 c2 -12 -3
-17 -17 -17 -15 0 -21 6 -21 21 0 25 33 22 38 -4z m157 -96 c3 -5 1 -13 -5
-16 -15 -9 -43 3 -35 15 8 13 32 13 40 1z m28 -51 c-4 -16 -14 -20 -44 -20
-28 0 -39 4 -39 15 0 17 12 19 26 5 7 -7 17 -5 30 5 26 20 33 19 27 -5z m-468
-85 c0 -29 2 -30 45 -30 44 0 45 1 48 33 3 27 7 33 24 30 18 -3 20 -11 21 -96
l2 -92 -95 0 -95 0 2 92 c1 51 2 94 3 96 0 2 10 2 22 0 17 -2 22 -10 23 -33z
m65 15 c0 -13 -7 -20 -20 -20 -13 0 -20 7 -20 20 0 13 7 20 20 20 13 0 20 -7
20 -20z m218 3 c-5 -26 -38 -29 -38 -4 0 15 6 21 21 21 14 0 19 -5 17 -17z
m154 -15 c3 -32 5 -33 48 -33 45 0 45 0 42 33 -3 29 -1 32 22 32 l26 0 0 -95
0 -95 -95 0 -95 0 0 95 c0 94 0 95 24 95 21 0 25 -6 28 -32z m63 12 c0 -8 -8
-16 -17 -18 -13 -2 -18 3 -18 18 0 15 5 20 18 18 9 -2 17 -10 17 -18z"/>
<path d="M380 715 c0 -158 2 -185 15 -185 13 0 15 26 15 170 l0 170 235 0 235
0 0 -30 c0 -20 5 -30 15 -30 11 0 15 12 15 45 l0 45 -265 0 -265 0 0 -185z"/>
<path d="M507 834 c-13 -13 5 -24 39 -24 24 0 34 5 34 15 0 10 -10 15 -33 15
-19 0 -37 -3 -40 -6z"/>
<path d="M615 830 c-3 -5 0 -13 8 -15 24 -10 187 -1 187 10 0 14 -186 19 -195
5z"/>
<path d="M495 750 c-3 -5 -12 -7 -19 -4 -10 4 -14 -6 -14 -38 -2 -61 6 -78 41
-93 56 -24 107 10 107 70 0 16 9 34 23 45 20 17 20 19 4 25 -9 4 -24 2 -33 -5
-11 -10 -18 -10 -26 -2 -14 14 -74 16 -83 2z m65 -29 c0 -12 -21 -19 -37 -13
-22 8 -14 22 12 22 14 0 25 -4 25 -9z m-8 -42 c24 15 36 6 22 -17 -23 -37 -84
-22 -84 21 0 20 0 20 21 1 17 -15 23 -16 41 -5z"/>
<path d="M647 708 c-9 -5 -9 -10 -1 -18 16 -16 179 -9 179 8 0 10 -21 14 -83
15 -46 1 -89 -1 -95 -5z"/>
<path d="M630 635 c0 -12 18 -15 100 -15 82 0 100 3 100 15 0 12 -18 15 -100
15 -82 0 -100 -3 -100 -15z"/>
<path d="M667 523 c-18 -18 0 -23 78 -23 69 0 85 3 85 15 0 12 -15 15 -78 15
-43 0 -82 -3 -85 -7z"/>
<path d="M633 457 c-12 -20 19 -28 103 -25 66 2 89 6 89 16 0 10 -23 14 -93
15 -52 1 -96 -2 -99 -6z"/>
<path d="M660 325 c0 -13 12 -15 78 -13 43 2 77 7 77 13 0 6 -34 11 -77 13
-66 2 -78 0 -78 -13z"/>
</g>
</svg>
