<?xml version="1.0" standalone="no"?>
<!DOCTYPE svg PUBLIC "-//W3C//DTD SVG 20010904//EN"
 "http://www.w3.org/TR/2001/REC-SVG-20010904/DTD/svg10.dtd">
<svg version="1.0" xmlns="http://www.w3.org/2000/svg"
 width="100.000000pt" height="100.000000pt" viewBox="0 0 100.000000 100.000000"
 preserveAspectRatio="xMidYMid meet">
<metadata>
Created by potrace 1.10, written by Peter Selinger 2001-2011
</metadata>
<g transform="translate(0.000000,100.000000) scale(0.100000,-0.100000)"
fill="#000000" stroke="none">
<path d="M205 968 c-68 -37 -106 -112 -86 -170 7 -21 7 -34 -1 -48 -18 -28 4
-69 42 -76 16 -4 30 -12 30 -19 0 -7 14 -25 31 -39 45 -38 33 -62 -35 -69 -67
-7 -108 -27 -138 -69 -21 -30 -23 -46 -26 -158 -4 -141 7 -179 59 -202 26 -12
29 -18 29 -60 l0 -48 205 0 205 0 0 50 c0 39 4 50 16 50 8 0 29 13 45 29 27
28 29 34 29 111 0 70 2 81 17 78 14 -3 16 -20 14 -146 -2 -99 1 -148 10 -158
15 -19 308 -21 327 -2 8 8 12 59 12 165 0 142 -1 153 -20 163 -11 6 -32 9 -48
8 l-27 -3 -3 143 -3 142 30 0 c17 0 31 6 35 16 12 31 7 299 -6 312 -19 19
-312 17 -327 -2 -8 -10 -11 -58 -9 -155 3 -137 2 -141 -17 -141 -35 0 -45 -20
-45 -87 0 -35 -1 -63 -2 -63 -2 0 -21 7 -43 15 -22 8 -54 14 -72 15 -42 0 -63
32 -35 52 10 7 27 25 36 41 10 15 26 27 36 27 32 0 44 29 47 113 2 70 -1 88
-20 121 -34 59 -74 76 -182 76 -49 0 -99 -6 -110 -12z m246 -54 c34 -35 51
-105 28 -119 -7 -5 -14 -4 -17 3 -2 7 -11 12 -20 12 -14 0 -17 -11 -17 -64 0
-50 -5 -71 -21 -93 -42 -56 -126 -60 -171 -8 -19 21 -23 38 -23 89 0 64 11 86
42 86 11 0 18 7 18 20 0 11 -5 20 -10 20 -23 0 -69 -31 -75 -50 -8 -26 -31
-26 -38 1 -10 36 15 92 53 117 32 21 44 23 127 20 88 -3 94 -4 124 -34z m259
-11 l0 -48 77 2 77 1 -3 46 -3 46 36 0 36 0 0 -140 0 -140 -145 0 -145 0 0
140 0 140 35 0 35 0 0 -47z m60 14 c0 -23 -5 -34 -15 -34 -10 0 -15 11 -15 34
0 23 5 33 15 33 10 0 15 -10 15 -33z m60 0 c0 -23 -5 -34 -15 -34 -10 0 -15
11 -15 34 0 23 5 33 15 33 10 0 15 -10 15 -33z m-650 -187 c0 -33 -11 -38 -30
-15 -10 12 -10 18 0 30 19 23 30 18 30 -15z m305 20 c9 -14 -4 -50 -18 -50 -7
0 -12 14 -12 30 0 29 17 41 30 20z m157 -160 l-5 -50 82 0 81 0 0 50 c0 49 1
50 30 50 l30 0 0 -135 c0 -74 1 -138 3 -141 1 -3 -55 -7 -126 -7 l-127 -2 0
40 c-1 22 -7 51 -15 65 -9 16 -14 54 -15 103 l0 77 34 0 33 0 -5 -50z m68 14
c0 -48 -31 -45 -35 4 -2 26 1 32 16 32 15 0 19 -7 19 -36z m60 1 c0 -24 -5
-35 -15 -35 -10 0 -15 11 -15 35 0 24 5 35 15 35 10 0 15 -11 15 -35z m-410
-45 c0 -9 -10 -26 -23 -38 l-23 -22 -23 24 c-32 34 -22 51 28 52 32 1 41 -2
41 -16z m-91 -54 l22 -23 -23 -6 c-26 -7 -23 -9 -32 26 -8 33 3 35 33 3z m131
17 c0 -18 -13 -53 -19 -53 -3 0 -13 4 -21 10 -12 7 -12 12 4 29 19 21 36 27
36 14z m-190 -40 c17 -53 22 -56 64 -37 37 18 38 18 122 -13 6 -2 17 16 24 42
13 45 13 45 49 39 91 -17 111 -55 111 -210 0 -107 -2 -120 -22 -141 -15 -16
-33 -23 -60 -23 l-38 0 0 45 0 45 45 0 c33 0 45 4 45 15 0 8 -7 15 -15 15 -12
0 -15 14 -15 65 0 51 -3 65 -15 65 -12 0 -15 -14 -15 -65 0 -51 -3 -65 -15
-65 -11 0 -15 13 -15 53 0 29 -5 58 -12 65 -13 13 -222 18 -252 6 -12 -5 -16
-21 -16 -65 0 -53 -2 -59 -21 -59 -20 0 -21 4 -17 65 3 57 2 65 -14 65 -15 0
-18 -9 -18 -65 0 -51 -3 -65 -15 -65 -8 0 -15 -7 -15 -15 0 -12 16 -15 80 -15
l80 0 0 -45 0 -45 -74 0 c-69 0 -76 2 -95 26 -18 23 -21 41 -21 135 0 59 4
119 9 132 17 45 72 82 128 86 6 1 17 -16 23 -36z m30 -146 c0 -36 19 -47 82
-47 61 0 80 14 71 51 -4 14 0 19 16 19 21 0 21 -4 21 -160 l0 -160 -110 0
-110 0 0 35 c0 28 4 35 19 35 10 0 24 7 31 15 7 8 25 15 41 15 35 0 59 24 59
57 0 45 -26 63 -92 63 l-58 0 0 50 c0 38 4 50 15 50 9 0 15 -9 15 -23z m125 3
c0 -11 -13 -16 -47 -18 -43 -3 -48 -1 -48 18 0 19 5 21 48 18 34 -2 47 -7 47
-18z m375 -62 l0 -48 78 0 78 0 0 46 c-1 45 0 46 32 49 l32 3 0 -144 0 -144
-142 0 -143 0 2 142 c2 79 3 143 3 143 0 0 14 0 30 0 29 0 30 -1 30 -47z m60
17 c0 -24 -5 -35 -15 -35 -10 0 -15 11 -15 35 0 24 5 35 15 35 10 0 15 -11 15
-35z m61 23 c-1 -5 -1 -19 -1 -33 0 -16 -6 -25 -15 -25 -11 0 -15 11 -15 36 0
27 4 35 16 32 8 -2 15 -6 15 -10z m-536 -118 c0 -20 -6 -26 -27 -28 -25 -3
-28 0 -28 28 0 28 3 31 28 28 21 -2 27 -8 27 -28z m-145 -125 c0 -28 -4 -35
-20 -35 -16 0 -20 7 -20 35 0 28 4 35 20 35 16 0 20 -7 20 -35z m310 0 c0 -24
-5 -35 -15 -35 -10 0 -15 11 -15 35 0 24 5 35 15 35 10 0 15 -11 15 -35z"/>
<path d="M300 837 c0 -29 24 -64 33 -50 11 17 -4 73 -19 73 -8 0 -14 -10 -14
-23z"/>
<path d="M360 840 c0 -12 5 -30 11 -41 8 -16 13 -18 25 -8 10 8 11 15 4 24 -6
7 -9 19 -8 26 2 7 -5 15 -14 17 -13 2 -18 -3 -18 -18z"/>
<path d="M240 745 c0 -8 7 -15 15 -15 8 0 15 7 15 15 0 8 -7 15 -15 15 -8 0
-15 -7 -15 -15z"/>
<path d="M362 748 c5 -15 28 -18 29 -3 0 6 -7 12 -17 13 -10 3 -15 -1 -12 -10z"/>
<path d="M265 680 c-11 -18 16 -40 50 -40 35 0 78 34 53 42 -7 3 -21 0 -30 -6
-13 -8 -23 -7 -38 2 -24 15 -27 15 -35 2z"/>
</g>
</svg>
